<svg width="344" height="62" viewBox="0 0 344 62" fill="none" xmlns="http://www.w3.org/2000/svg">
<g clip-path="url(#clip0_0_167)">
<path d="M47.5912 37.3844C47.1526 37.3844 46.8652 37.3844 46.5772 37.3844C40.4636 37.3849 34.35 37.4031 28.2364 37.3649C27.3935 37.3596 27.1839 37.6074 27.2229 38.4151C27.2894 39.7858 27.2414 41.1616 27.2414 42.6578C30.8055 42.6578 34.2806 42.6578 37.7563 42.6578C37.7967 42.7461 37.8375 42.8349 37.8779 42.9232C37.0683 43.5935 36.2976 44.3196 35.4419 44.924C31.8455 47.4643 27.8263 48.6368 23.4379 48.5093C21.4319 48.4511 21.4238 48.4243 21.421 46.4522C21.4143 41.8801 21.4295 37.3081 21.4029 32.736C21.3986 32.0184 21.5749 31.7549 22.3456 31.7564C32.7683 31.7797 43.1914 31.775 53.614 31.7587C54.2759 31.7578 54.6304 31.8628 54.523 32.6462C53.777 38.0862 51.8684 43.0603 48.5258 47.4175C43.276 54.2601 36.3627 58.2712 27.8121 59.2914C19.3166 60.3049 11.6668 58.0688 5.05528 52.6617C-1.29068 47.4719 -4.97111 40.7014 -5.98316 32.5035C-6.05158 31.9487 -5.92329 31.7654 -5.37973 31.7716C-3.92581 31.7879 -2.47093 31.785 -1.017 31.7673C-0.55802 31.7616 -0.376516 31.9043 -0.305245 32.3985C0.535752 38.259 3.11481 43.2359 7.4286 47.2585C11.3314 50.8977 15.9664 53.0441 21.2613 53.6772C28.4635 54.5379 34.8527 52.5319 40.3847 47.8944C43.6822 45.1293 46.0494 41.6429 47.5912 37.3844Z" fill="#001F75"/>
<path d="M13.6606 25.3452C16.3931 25.3452 19.0035 25.3452 21.6144 25.3452C25.52 25.3452 29.4257 25.3328 33.3308 25.3591C33.9618 25.3634 34.1837 25.1848 34.1628 24.5394C34.1205 23.2418 34.1186 21.9414 34.1609 20.6443C34.1823 19.9898 33.9447 19.8212 33.3209 19.8274C30.4662 19.8566 27.6106 19.8403 24.7555 19.8403C24.4676 19.8403 24.1797 19.8403 23.8913 19.8403C23.8547 19.773 23.8181 19.7052 23.7815 19.6379C24.1972 19.2574 24.5878 18.843 25.033 18.5012C28.0972 16.1491 31.5153 14.6758 35.3958 14.4428C36.6502 14.3674 37.9131 14.4347 39.1717 14.4443C39.7505 14.4486 40.0023 14.6858 39.9985 15.3351C39.9704 20.2051 39.9747 25.0755 39.9923 29.9455C39.9947 30.5336 39.8346 30.7499 39.2188 30.749C28.6331 30.7322 18.048 30.7322 7.46236 30.7423C6.86986 30.7427 6.67695 30.6181 6.75773 29.956C7.51368 23.7383 9.91123 18.2544 14.0103 13.5415C19.0306 7.76973 25.3471 4.32719 32.9004 3.30556C41.8263 2.09821 49.7645 4.47901 56.6797 10.267C61.0229 13.9024 64.0975 18.4306 65.8071 23.8405C66.4224 25.7868 66.775 27.8172 67.2335 29.8128C67.3703 30.4081 67.2586 30.7833 66.4922 30.7547C65.1205 30.7041 63.745 30.7227 62.3718 30.7499C61.8307 30.7604 61.6183 30.5542 61.5389 30.0209C60.6461 24.0482 57.9873 18.9925 53.5048 14.9809C49.0489 10.9931 43.7939 8.87348 37.8019 8.70305C30.3912 8.49252 24.1217 11.1364 18.974 16.4484C16.6981 18.7977 15.0071 21.5542 13.8482 24.6277C13.7746 24.8249 13.7404 25.0368 13.6606 25.3452Z" fill="#001F75"/>
</g>
<path d="M205.155 47.027H204V53.165H205.155V47.027ZM210.915 46.917V50.756L206.471 46.708V53.066H207.626V49.227L212.07 53.275V46.917H210.915ZM217.58 47.995V47.005H213.389V53.165H214.555V50.437H217.58V49.524H214.555V47.995H217.58ZM225.774 49.986C225.774 48.171 224.245 46.708 222.342 46.708C220.439 46.708 218.899 48.171 218.899 49.986C218.899 51.801 220.439 53.275 222.342 53.275C224.245 53.275 225.774 51.801 225.774 49.986ZM224.63 49.986C224.63 51.196 223.607 52.175 222.342 52.175C221.066 52.175 220.043 51.196 220.043 49.986C220.043 48.776 221.066 47.808 222.342 47.808C223.607 47.808 224.63 48.776 224.63 49.986ZM230.484 50.778C231.408 50.613 232.101 49.843 232.101 48.908C232.101 47.863 231.21 47.027 230.121 47.027H227.096V53.165H228.251V49.832L230.935 53.165H232.409L230.484 50.778ZM228.251 47.995H229.989C230.517 47.995 230.957 48.413 230.957 48.908C230.957 49.425 230.517 49.832 229.989 49.832H228.251V47.995ZM240.17 46.807L236.947 49.777L233.724 46.807V53.165H234.879V49.403L236.947 51.361L239.015 49.403V53.165H240.17V46.807ZM245.639 53.165H246.926L243.934 46.818L240.942 53.165H242.229L242.625 52.296H245.243L245.639 53.165ZM243.131 51.163L243.934 49.381L244.737 51.163H243.131ZM252.181 47.027H246.593V48.105H248.804V53.165H249.959V48.105H252.181V47.027ZM254.655 47.027H253.5V53.165H254.655V47.027ZM262.846 49.986C262.846 48.171 261.317 46.708 259.414 46.708C257.511 46.708 255.971 48.171 255.971 49.986C255.971 51.801 257.511 53.275 259.414 53.275C261.317 53.275 262.846 51.801 262.846 49.986ZM261.702 49.986C261.702 51.196 260.679 52.175 259.414 52.175C258.138 52.175 257.115 51.196 257.115 49.986C257.115 48.776 258.138 47.808 259.414 47.808C260.679 47.808 261.702 48.776 261.702 49.986ZM268.611 46.917V50.756L264.167 46.708V53.066H265.322V49.227L269.766 53.275V46.917H268.611ZM279.638 47.027H274.05V48.105H276.261V53.165H277.416V48.105H279.638V47.027ZM285.148 47.995V47.027H280.957V53.165H285.148V52.197H282.123V50.448H285.005V49.535H282.123V47.995H285.148ZM291.693 51.108C291.297 51.713 290.593 52.109 289.801 52.109C288.58 52.109 287.59 51.152 287.59 49.986C287.59 48.82 288.58 47.863 289.801 47.863C290.593 47.863 291.297 48.27 291.693 48.864L292.617 48.303C292.034 47.412 290.989 46.818 289.79 46.818C287.964 46.818 286.468 48.237 286.468 49.986C286.468 51.746 287.964 53.165 289.79 53.165C290.989 53.165 292.034 52.571 292.617 51.669L291.693 51.108ZM298.301 47.027V49.524H295.089V47.027H293.934V53.165H295.089V50.448H298.301V53.165H299.456V47.027H298.301ZM305.22 46.917V50.756L300.776 46.708V53.066H301.931V49.227L306.375 53.275V46.917H305.22ZM314.569 49.986C314.569 48.171 313.04 46.708 311.137 46.708C309.234 46.708 307.694 48.171 307.694 49.986C307.694 51.801 309.234 53.275 311.137 53.275C313.04 53.275 314.569 51.801 314.569 49.986ZM313.425 49.986C313.425 51.196 312.402 52.175 311.137 52.175C309.861 52.175 308.838 51.196 308.838 49.986C308.838 48.776 309.861 47.808 311.137 47.808C312.402 47.808 313.425 48.776 313.425 49.986ZM317.046 52.186V47.027H315.891V53.165H320.5V52.186H317.046ZM328.147 49.986C328.147 48.171 326.618 46.708 324.715 46.708C322.812 46.708 321.272 48.171 321.272 49.986C321.272 51.801 322.812 53.275 324.715 53.275C326.618 53.275 328.147 51.801 328.147 49.986ZM327.003 49.986C327.003 51.196 325.98 52.175 324.715 52.175C323.439 52.175 322.416 51.196 322.416 49.986C322.416 48.776 323.439 47.808 324.715 47.808C325.98 47.808 327.003 48.776 327.003 49.986ZM333.008 53.242C333.822 53.176 334.559 52.923 335.142 52.505V49.733H332.568V50.646H334.097V51.856C333.833 52.021 333.514 52.131 333.162 52.175C333.162 52.175 332.832 52.219 332.656 52.219H332.59C331.314 52.219 330.291 51.218 330.291 49.986C330.291 48.743 331.314 47.753 332.59 47.753H332.656C333.272 47.764 333.822 47.995 334.229 48.38L335.043 47.643C334.658 47.291 334.174 47.016 333.646 46.862V46.851C333.459 46.796 333.261 46.763 333.063 46.741C333.019 46.741 332.964 46.73 332.909 46.73C332.854 46.73 332.799 46.73 332.744 46.719H332.579C330.676 46.719 329.136 48.182 329.136 49.986C329.136 51.79 330.676 53.264 332.568 53.264H332.656C332.744 53.264 332.843 53.253 332.931 53.253H332.975C332.986 53.242 332.997 53.242 333.008 53.242ZM342.094 47.027H340.741L339.278 49.48L337.815 47.027H336.462L338.673 50.657V53.165H339.883V50.657L342.094 47.027Z" fill="#001F75"/>
<path d="M75.838 11.842V37H80.92V7.60002H79.618L75.838 11.842ZM79.618 7.60002L71.512 13.984L73.696 17.05L80.92 11.422L79.618 7.60002ZM106.653 31.33L111.693 37V13.522L108.333 7.60002H106.653V31.33ZM125.595 30.826L128.955 37H130.635V7.60002H125.595V30.826ZM108.123 14.572L128.955 37L128.913 29.692L108.333 7.60002L108.123 14.572ZM87.7115 37H92.7515V13.522L89.3915 7.60002H87.7115V37ZM106.653 30.826L110.013 37H111.693V12.934L106.653 7.60002V30.826ZM89.1815 14.572L110.013 37L109.971 29.692L89.3915 7.60002L89.1815 14.572ZM136.34 22.3C136.34 31.498 141.044 37.63 148.1 37.63C155.156 37.63 159.818 31.498 159.818 22.3C159.818 13.102 155.156 6.97002 148.1 6.97002C141.044 6.97002 136.34 13.102 136.34 22.3ZM141.338 22.3C141.338 8.86002 154.862 8.86002 154.862 22.3C154.862 35.698 141.338 35.698 141.338 22.3ZM178.37 37.42L180.05 31.456L169.088 7.60002H163.838L177.53 37.42H178.37ZM192.02 7.60002H186.812L175.808 31.456L177.53 37.42H178.37L192.02 7.60002ZM193 37L194.89 32.884H208.834L210.724 37H215.932L202.282 7.18002H201.442L187.75 37H193ZM197.032 28.18L201.862 17.764L206.65 28.18H197.032ZM224.149 12.304V37H229.189V12.304H238.807V7.60002H214.615V12.304H224.149ZM246.176 11.842V37H251.258V7.60002H249.956L246.176 11.842ZM249.956 7.60002L241.85 13.984L244.034 17.05L251.258 11.422L249.956 7.60002ZM257.377 22.3C257.377 31.498 262.081 37.63 269.137 37.63C276.193 37.63 280.855 31.498 280.855 22.3C280.855 13.102 276.193 6.97002 269.137 6.97002C262.081 6.97002 257.377 13.102 257.377 22.3ZM262.375 22.3C262.375 8.86002 275.899 8.86002 275.899 22.3C275.899 35.698 262.375 35.698 262.375 22.3ZM286.555 7.60002V37H291.595V18.436L308.857 37H310.537V7.60002H305.497V26.122L288.277 7.60002H286.555ZM337.319 10.708C334.589 8.02002 330.809 6.38202 326.987 6.38202C321.695 6.38202 316.907 9.23802 316.907 14.992C316.907 24.61 333.245 24.022 333.245 29.65C333.245 32.422 329.927 33.262 327.701 33.262C324.803 33.262 321.779 32.506 319.973 30.028L316.067 33.094C318.755 36.664 323.207 38.218 327.533 38.218C332.573 38.218 338.201 35.53 338.201 29.818C338.201 19.528 321.863 20.2 321.863 15.16C321.863 12.22 324.299 11.338 326.819 11.338C329.549 11.338 332.069 12.472 334.001 14.404L337.319 10.708Z" fill="#001F75"/>
<line x1="73" y1="50.5" x2="199" y2="50.5" stroke="#001F75" stroke-opacity="0.4"/>
<defs>
<clipPath id="clip0_0_167">
<rect x="62" width="62" height="62" rx="31" transform="rotate(90 62 0)" fill="white"/>
</clipPath>
</defs>
</svg>
