<svg width="92" height="110" viewBox="0 0 92 110" fill="none" xmlns="http://www.w3.org/2000/svg">
<path d="M0.463076 79.2194C0.591219 78.626 0.719348 78.0197 0.847492 77.4263C2.35959 70.4729 8.1005 65.7255 15.174 65.661C19.7232 65.6223 24.2722 65.6352 28.8213 65.661C29.603 65.661 30.1797 65.4417 30.7051 64.8483C31.7815 63.6356 32.9348 62.4746 34.1393 61.2232C27.4374 56.6436 23.875 50.3223 23.4393 42.1434C20.5304 42.1434 18.0444 41.2017 16.2632 38.8022C15.0971 37.2283 14.5973 35.4481 14.7127 33.4872C14.9946 29.0107 17.9419 26.3661 23.0933 25.7856C23.9134 22.4573 24.7079 19.2063 25.528 15.8651C25.4127 15.8393 25.0411 15.7619 24.6566 15.7103C23.042 15.5039 21.8888 14.6653 21.3249 13.1431C20.7483 11.6079 21.0943 10.2018 22.1835 9.00203C25.6434 5.18348 29.9234 2.70659 34.8313 1.39074C40.7003 -0.170216 46.6461 -0.621735 52.5792 1.10693C59.422 3.10651 64.3044 7.55716 67.6105 13.7494C68.8791 16.1231 69.648 18.7677 70.6731 21.2833C71.0063 22.096 70.7884 22.6765 70.1349 23.1797C69.7889 23.4506 69.507 23.7989 69.1354 24.0182C68.4434 24.4181 68.3409 24.9728 68.5844 25.7727C71.4292 25.7985 73.928 26.7144 75.7092 29.1268C76.8497 30.6749 77.4135 32.4293 77.2982 34.3386C77.0162 38.9054 73.992 41.6145 68.5587 42.1692C68.1359 50.2062 64.6247 56.5661 57.8715 61.1974C59.1914 62.6165 60.4473 64.0097 61.78 65.3127C62.0619 65.5836 62.6385 65.6352 63.087 65.6352C67.6361 65.661 72.1852 65.6094 76.7343 65.661C83.936 65.7513 89.6768 70.5374 91.1249 77.6198C91.3299 78.6389 91.4196 79.7096 91.4196 80.7546C91.4453 89.9526 91.4453 99.1507 91.4068 108.362C91.4068 108.903 91.0352 109.458 90.8302 110C60.7292 110 30.6282 110 0.4375 110C0.463129 99.7312 0.463076 89.4753 0.463076 79.2194ZM89.7153 108.207C89.7409 107.897 89.7794 107.652 89.7794 107.407C89.7794 98.2734 89.8434 89.1528 89.7537 80.0192C89.6896 73.569 84.5383 67.8799 78.1567 67.4542C73.1591 67.1188 68.123 67.3123 63.0998 67.2478C62.4078 67.2348 62.2925 67.609 62.19 68.1766C61.2673 73.2465 60.3191 78.3164 59.3709 83.3863C59.012 85.2956 58.6276 85.4504 57.0899 84.3151C53.6556 81.7737 50.2085 79.2581 46.8127 76.678C46.1335 76.162 45.7107 76.2007 45.0444 76.7038C41.6229 79.3097 38.1502 81.8769 34.6903 84.4441C33.3704 85.4246 32.986 85.2568 32.64 83.6185C32.6144 83.4766 32.5887 83.3347 32.5631 83.1928C31.6405 78.239 30.6922 73.2723 29.8081 68.3056C29.6543 67.4671 29.3339 67.2478 28.5394 67.2478C24.2466 67.2736 19.941 67.2736 15.6482 67.2607C7.98517 67.2349 2.1674 73.0143 2.15458 80.703C2.14177 89.4624 2.15458 98.2347 2.15458 106.994C2.15458 107.381 2.15458 107.768 2.15458 108.181C7.40848 108.181 12.547 108.181 17.7625 108.181C17.7625 107.691 17.7625 107.291 17.7625 106.904C17.7625 103.524 17.7625 100.144 17.7625 96.7512C17.7625 96.4287 17.6857 96.0545 17.8138 95.7836C17.9419 95.5127 18.2879 95.1257 18.4929 95.1515C18.7877 95.1902 19.1465 95.4998 19.3131 95.7836C19.454 96.0416 19.3771 96.4158 19.3771 96.7512C19.3771 100.131 19.3771 103.511 19.3771 106.904C19.3771 107.33 19.3771 107.755 19.3771 108.207C37.1635 108.207 54.7961 108.207 72.5312 108.207C72.5312 107.691 72.5312 107.265 72.5312 106.826C72.5312 103.447 72.5184 100.067 72.544 96.6738C72.544 96.0287 72.3134 95.1128 73.3898 95.1257C74.3893 95.1386 74.1458 96.0159 74.1586 96.6222C74.1714 100.08 74.1714 103.537 74.1714 106.981C74.1714 107.368 74.1714 107.755 74.1714 108.207C79.4382 108.207 84.5383 108.207 89.7153 108.207ZM66.7135 25.9146C66.3931 25.992 66.2137 26.0178 66.0599 26.0823C62.5103 27.6174 58.7557 27.8109 55.0011 27.4239C47.1203 26.6112 39.9955 23.7344 33.4729 19.2192C31.948 18.1614 30.1797 17.4518 28.5266 16.5746C27.8475 16.2134 27.5143 16.5101 27.2195 17.1551C25.9381 19.9675 25.2076 22.9087 25.1948 26.0049C25.1692 31.307 25.1308 36.622 25.1948 41.9241C25.3614 55.3664 37.3941 64.4613 48.7348 62.6423C58.9351 61.0039 66.7391 52.2058 66.7135 41.7951C66.7007 36.9187 66.7135 32.0552 66.7135 27.1788C66.7135 26.7789 66.7135 26.4048 66.7135 25.9146ZM57.6665 25.7856C61.498 25.8114 65.0476 24.9987 68.1358 22.5605C68.7637 22.0702 69.0457 21.5929 68.6997 20.806C67.7899 18.7161 67.0851 16.5101 65.9959 14.5105C62.6513 8.35699 57.7818 4.07404 50.8493 2.47438C45.2494 1.18433 39.7136 1.68744 34.2803 3.3129C30.1668 4.55135 26.5788 6.74444 23.6187 9.93086C22.9139 10.6791 22.5679 11.5047 22.9267 12.511C23.2727 13.4656 24.0031 13.93 24.9898 14.0203C28.9367 14.3558 32.2428 16.136 35.4848 18.3033C42.1867 22.8055 49.555 25.4502 57.6665 25.7856ZM57.0386 62.7068C53.7197 66.7833 50.452 70.7954 47.133 74.8719C50.7211 77.5165 54.181 80.0709 57.6537 82.6381C57.8075 82.393 57.8715 82.3284 57.8843 82.2639C58.8198 77.2715 59.7553 72.2919 60.6651 67.2994C60.7164 67.0027 60.6138 66.564 60.4088 66.3318C59.3452 65.145 58.2432 63.9968 57.0386 62.7068ZM34.2034 82.7413C37.817 80.0451 41.2641 77.4778 44.7496 74.8719C41.4691 70.7696 38.2911 66.7833 35.2029 62.9261C34.0111 64.0355 32.845 65.0418 31.7686 66.1641C31.4739 66.4737 31.3201 67.1316 31.397 67.5703C31.8071 70.1504 32.3069 72.7047 32.781 75.2719C33.2295 77.6843 33.6908 80.0967 34.2034 82.7413ZM23.3624 27.669C21.1711 27.2562 18.7236 28.4302 17.4037 30.4685C16.007 32.6229 16.007 35.4222 17.4806 37.5508C18.8902 39.5762 20.8379 40.4921 23.3624 40.3373C23.3624 36.0415 23.3624 31.8488 23.3624 27.669ZM45.9413 73.5819C48.7733 70.0988 51.5284 66.7189 54.2835 63.326C48.7477 65.2095 43.2887 65.1837 37.5351 63.0551C40.444 66.693 43.1478 70.073 45.9413 73.5819ZM68.7894 34.0419C68.7894 35.719 68.7894 37.3831 68.7894 39.0602C68.7894 40.3244 68.9303 40.4147 70.1989 40.1696C70.3783 40.1309 70.5578 40.1051 70.7372 40.0664C73.7742 39.3827 75.6835 36.5833 75.4272 33.1775C75.2222 30.4426 72.7362 27.9528 70.0708 27.7335C69.1482 27.6561 68.7509 27.9012 68.7766 28.9075C68.8278 30.6232 68.7894 32.339 68.7894 34.0419Z" fill="#E0E0E0"/>
<path d="M24.1056 28C14.1579 19.3881 21.7969 10.0849 21.8815 10L22.921 10.8733C22.643 11.2129 16.0798 19.2547 25 26.969L24.1056 28Z" fill="#E0E0E0"/>
</svg>
